<?xml version="1.0" encoding="UTF-8"?>
<!DOCTYPE svg PUBLIC "-//W3C//DTD SVG 1.1//EN" "http://www.w3.org/Graphics/SVG/1.1/DTD/svg11.dtd">
<svg xmlns="http://www.w3.org/2000/svg" version="1.1" width="814px" height="814px" style="shape-rendering:geometricPrecision; text-rendering:geometricPrecision; image-rendering:optimizeQuality; fill-rule:evenodd; clip-rule:evenodd" xmlns:xlink="http://www.w3.org/1999/xlink">
<g><path style="opacity:1" fill="#e2e2e2" d="M -0.5,-0.5 C 0.833333,-0.5 2.16667,-0.5 3.5,-0.5C 1.83333,0.5 0.5,1.83333 -0.5,3.5C -0.5,2.16667 -0.5,0.833333 -0.5,-0.5 Z"/></g>
<g><path style="opacity:1" fill="#000000" d="M 3.5,-0.5 C 272.5,-0.5 541.5,-0.5 810.5,-0.5C 811.29,0.40128 812.29,1.06795 813.5,1.5C 813.5,272.167 813.5,542.833 813.5,813.5C 542.833,813.5 272.167,813.5 1.5,813.5C 1.06795,812.29 0.40128,811.29 -0.5,810.5C -0.5,541.5 -0.5,272.5 -0.5,3.5C 0.5,1.83333 1.83333,0.5 3.5,-0.5 Z"/></g>
<g><path style="opacity:1" fill="#e3e3e3" d="M 810.5,-0.5 C 811.5,-0.5 812.5,-0.5 813.5,-0.5C 813.5,0.166667 813.5,0.833333 813.5,1.5C 812.29,1.06795 811.29,0.40128 810.5,-0.5 Z"/></g>
<g><path style="opacity:1" fill="#717171" d="M 415.5,129.5 C 406.418,129.23 397.418,129.897 388.5,131.5C 390.476,129.989 392.809,129.156 395.5,129C 402.346,128.179 409.013,128.346 415.5,129.5 Z"/></g>
<g><path style="opacity:1" fill="#f7f7f7" d="M 415.5,129.5 C 419.5,130.167 423.5,130.833 427.5,131.5C 429.515,132.924 431.848,133.59 434.5,133.5C 474.703,152.235 490.87,183.568 483,227.5C 480.476,235.752 476.809,243.419 472,250.5C 463.93,260.306 456.596,270.64 450,281.5C 448.381,287.761 447.214,294.095 446.5,300.5C 434.833,300.5 423.167,300.5 411.5,300.5C 411.214,294.741 411.548,289.075 412.5,283.5C 414.5,281.329 416.334,278.996 418,276.5C 418.634,273.445 418.468,270.445 417.5,267.5C 417.351,266.448 417.517,265.448 418,264.5C 420.173,266.64 422.673,266.974 425.5,265.5C 436.152,266.025 443.152,261.358 446.5,251.5C 462.021,249.146 469.188,240.146 468,224.5C 467.15,222.99 466.317,221.49 465.5,220C 468.367,216.439 470.867,212.606 473,208.5C 475.739,199.051 473.072,191.718 465,186.5C 464.823,182.644 464.323,178.977 463.5,175.5C 463.975,172.687 462.975,170.687 460.5,169.5C 457.433,164.962 453.1,162.462 447.5,162C 441.737,150.617 432.737,146.617 420.5,150C 415.873,152.788 412.539,156.622 410.5,161.5C 409.352,165.981 409.185,170.648 410,175.5C 410.708,176.381 411.542,177.047 412.5,177.5C 412.433,179.401 412.767,181.234 413.5,183C 411,185.585 409.667,188.751 409.5,192.5C 408.829,198.662 409.829,204.496 412.5,210C 410.957,212.042 409.624,214.208 408.5,216.5C 407.5,216.5 406.5,216.5 405.5,216.5C 403.987,214.651 402.654,212.651 401.5,210.5C 403.081,208.858 403.747,206.858 403.5,204.5C 406.17,195.928 404.17,188.595 397.5,182.5C 408.802,168.295 406.469,157.128 390.5,149C 379.542,146.977 371.875,150.977 367.5,161C 360.426,162.082 354.926,165.582 351,171.5C 350.828,176.202 350.328,180.868 349.5,185.5C 341.085,190.893 338.252,198.559 341,208.5C 342.698,212.863 345.198,216.696 348.5,220C 344.429,227.239 344.596,234.406 349,241.5C 353.009,247.926 358.843,251.426 366.5,252C 369.139,257.629 373.139,261.962 378.5,265C 381.817,265.498 385.15,265.665 388.5,265.5C 390.137,264.782 391.803,264.616 393.5,265C 391.405,265.556 391.238,266.056 393,266.5C 394.301,265.107 395.801,264.607 397.5,265C 395.381,265.342 395.047,266.175 396.5,267.5C 394.183,274.854 396.516,280.187 403.5,283.5C 403.5,289.167 403.5,294.833 403.5,300.5C 391.833,300.5 380.167,300.5 368.5,300.5C 368.795,298.265 368.461,296.265 367.5,294.5C 367.5,294.167 367.5,293.833 367.5,293.5C 367.741,291.102 367.074,289.102 365.5,287.5C 365.628,285.345 365.128,283.345 364,281.5C 357.404,270.64 350.07,260.306 342,250.5C 337.977,244.601 334.811,238.268 332.5,231.5C 331.988,223.516 330.988,215.683 329.5,208C 330.451,198.795 331.784,189.628 333.5,180.5C 340.946,160.054 354.612,145.387 374.5,136.5C 379.144,135.401 383.478,133.734 387.5,131.5C 387.833,131.5 388.167,131.5 388.5,131.5C 397.418,129.897 406.418,129.23 415.5,129.5 Z"/></g>
<g><path style="opacity:1" fill="#505050" d="M 427.5,131.5 C 430.152,131.41 432.485,132.076 434.5,133.5C 431.848,133.59 429.515,132.924 427.5,131.5 Z"/></g>
<g><path style="opacity:1" fill="#868686" d="M 387.5,131.5 C 383.478,133.734 379.144,135.401 374.5,136.5C 378.206,133.491 382.539,131.824 387.5,131.5 Z"/></g>
<g><path style="opacity:1" fill="#e2e2e2" d="M 304.5,139.5 C 312.247,142.294 319.413,146.294 326,151.5C 327.167,155.667 325.667,157.167 321.5,156C 315.913,152.29 310.413,148.457 305,144.5C 304.506,142.866 304.34,141.199 304.5,139.5 Z"/></g>
<g><path style="opacity:1" fill="#e4e4e4" d="M 504.5,139.5 C 506.167,139.5 507.833,139.5 509.5,139.5C 509.785,141.288 509.452,142.955 508.5,144.5C 502.748,148.928 496.748,152.928 490.5,156.5C 487.754,155.904 486.92,154.237 488,151.5C 493.402,147.25 498.902,143.25 504.5,139.5 Z"/></g>
<g><path style="opacity:1" fill="#181818" d="M 403.5,204.5 C 402.696,206.189 401.696,207.855 400.5,209.5C 400.624,210.107 400.957,210.44 401.5,210.5C 402.654,212.651 403.987,214.651 405.5,216.5C 406.051,222.847 405.051,228.847 402.5,234.5C 400.978,235.191 399.978,236.358 399.5,238C 401.249,242.311 401.916,246.811 401.5,251.5C 399.201,258.13 394.867,262.797 388.5,265.5C 385.15,265.665 381.817,265.498 378.5,265C 373.139,261.962 369.139,257.629 366.5,252C 358.843,251.426 353.009,247.926 349,241.5C 344.596,234.406 344.429,227.239 348.5,220C 345.198,216.696 342.698,212.863 341,208.5C 338.252,198.559 341.085,190.893 349.5,185.5C 350.328,180.868 350.828,176.202 351,171.5C 354.926,165.582 360.426,162.082 367.5,161C 371.875,150.977 379.542,146.977 390.5,149C 406.469,157.128 408.802,168.295 397.5,182.5C 404.17,188.595 406.17,195.928 403.5,204.5 Z"/></g>
<g><path style="opacity:1" fill="#161616" d="M 460.5,169.5 C 461.508,171.544 462.508,173.544 463.5,175.5C 464.323,178.977 464.823,182.644 465,186.5C 473.072,191.718 475.739,199.051 473,208.5C 470.867,212.606 468.367,216.439 465.5,220C 466.317,221.49 467.15,222.99 468,224.5C 469.188,240.146 462.021,249.146 446.5,251.5C 443.152,261.358 436.152,266.025 425.5,265.5C 414.804,260.789 410.304,252.456 412,240.5C 412.944,239.737 413.444,238.737 413.5,237.5C 409.183,231.228 407.516,224.228 408.5,216.5C 409.624,214.208 410.957,212.042 412.5,210C 409.829,204.496 408.829,198.662 409.5,192.5C 411.307,188.918 413.64,185.584 416.5,182.5C 415.388,180.581 414.054,178.914 412.5,177.5C 410.668,172.422 410.002,167.089 410.5,161.5C 412.539,156.622 415.873,152.788 420.5,150C 432.737,146.617 441.737,150.617 447.5,162C 453.1,162.462 457.433,164.962 460.5,169.5 Z"/></g>
<g><path style="opacity:1" fill="#f4f4f4" d="M 380.5,186.5 C 384.634,187.485 388.968,187.818 393.5,187.5C 397.574,189.987 399.241,193.653 398.5,198.5C 398.126,205.608 394.626,210.274 388,212.5C 385.973,210.98 383.806,209.647 381.5,208.5C 377.67,209.958 377.504,211.958 381,214.5C 381.333,217.833 381.667,221.167 382,224.5C 383.333,225.833 384.667,225.833 386,224.5C 386.833,222.5 387.667,220.5 388.5,218.5C 391.446,217.694 394.112,216.361 396.5,214.5C 397.478,214.977 398.311,215.643 399,216.5C 399.985,221.689 399.485,226.689 397.5,231.5C 396.833,231.833 396.167,232.167 395.5,232.5C 393.833,231.833 392.167,231.167 390.5,230.5C 387.483,231.38 386.816,233.214 388.5,236C 395.829,238.33 398.329,243.163 396,250.5C 392.994,258.064 387.494,260.897 379.5,259C 374.104,255.706 371.77,250.872 372.5,244.5C 377.5,245.5 379.5,243.5 378.5,238.5C 374.189,239.464 371.189,237.964 369.5,234C 366.763,232.92 365.096,233.754 364.5,236.5C 366.125,239.235 366.792,242.235 366.5,245.5C 357.139,244.642 352.139,239.476 351.5,230C 351.565,227.775 351.898,225.608 352.5,223.5C 356.445,222.509 360.445,222.176 364.5,222.5C 364.714,220.856 364.38,219.356 363.5,218C 349.729,216.865 344.229,209.365 347,195.5C 348.062,192.936 349.896,191.269 352.5,190.5C 354.638,193.368 357.305,194.035 360.5,192.5C 361.268,191.737 361.768,190.737 362,189.5C 362.498,192.482 362.665,195.482 362.5,198.5C 365.059,198.802 367.393,198.468 369.5,197.5C 371.597,196.121 371.93,194.455 370.5,192.5C 370.389,191.883 370.056,191.383 369.5,191C 367.527,190.505 365.527,190.338 363.5,190.5C 363.649,189.448 363.483,188.448 363,187.5C 361.989,188.337 360.822,188.67 359.5,188.5C 356.396,186.365 355.063,183.365 355.5,179.5C 355.649,174.374 357.982,170.541 362.5,168C 366.203,167.421 369.869,167.588 373.5,168.5C 373.338,170.527 373.505,172.527 374,174.5C 375.667,175.833 377.333,175.833 379,174.5C 378.684,170.863 380.018,168.196 383,166.5C 383.986,164.075 383.319,162.409 381,161.5C 379.604,162.394 378.104,163.061 376.5,163.5C 372.657,161.705 372.657,159.538 376.5,157C 385.194,151.997 392.361,153.831 398,162.5C 398.798,176.031 392.298,182.198 378.5,181C 376.82,183.811 377.487,185.644 380.5,186.5 Z"/></g>
<g><path style="opacity:1" fill="#cacaca" d="M 422.5,156.5 C 422.2,159.335 420.534,161.668 417.5,163.5C 416.516,166.428 416.183,169.428 416.5,172.5C 413.743,165.348 415.743,160.015 422.5,156.5 Z"/></g>
<g><path style="opacity:1" fill="#f5f5f5" d="M 455.5,172.5 C 457.734,176.961 458.067,181.627 456.5,186.5C 453.651,187.92 452.984,189.92 454.5,192.5C 456.515,193.853 458.182,193.353 459.5,191C 463.204,190.955 465.704,192.789 467,196.5C 469.392,207.057 465.559,214.057 455.5,217.5C 453.5,217.5 451.5,217.5 449.5,217.5C 449.5,219.5 449.5,221.5 449.5,223.5C 451.833,223.5 454.167,223.5 456.5,223.5C 457.833,223.5 459.167,223.5 460.5,223.5C 461.207,226.786 461.54,230.119 461.5,233.5C 459.884,239.783 455.884,243.783 449.5,245.5C 446.862,244.304 446.029,242.304 447,239.5C 447.383,238.944 447.883,238.611 448.5,238.5C 449.451,237.081 449.784,235.415 449.5,233.5C 447.585,233.216 445.919,233.549 444.5,234.5C 442.621,238.009 439.621,239.342 435.5,238.5C 435.5,240.5 435.5,242.5 435.5,244.5C 437.5,244.5 439.5,244.5 441.5,244.5C 440.813,256.849 434.48,261.349 422.5,258C 420.432,255.358 418.765,252.525 417.5,249.5C 417.708,245.879 418.708,242.546 420.5,239.5C 422.173,237.494 423.84,235.494 425.5,233.5C 425.566,231.734 424.732,230.734 423,230.5C 421.441,231.029 419.941,231.696 418.5,232.5C 417.108,231.395 415.941,230.061 415,228.5C 414.333,224.5 414.333,220.5 415,216.5C 415.388,215.572 416.055,214.905 417,214.5C 419.658,217.08 422.824,218.413 426.5,218.5C 426.372,220.655 426.872,222.655 428,224.5C 429.049,225.517 430.216,225.684 431.5,225C 432.293,221.589 432.793,218.089 433,214.5C 436.496,211.958 436.33,209.958 432.5,208.5C 430.111,210.059 427.611,211.393 425,212.5C 420.716,210.882 417.716,207.882 416,203.5C 415.333,199.833 415.333,196.167 416,192.5C 416.377,191.058 417.21,190.058 418.5,189.5C 419.289,189.217 419.956,188.717 420.5,188C 424.688,187.824 428.688,187.324 432.5,186.5C 433.496,186.586 434.329,186.252 435,185.5C 435.494,183.866 435.66,182.199 435.5,180.5C 431.154,180.666 426.821,180.499 422.5,180C 419.879,177.886 417.879,175.386 416.5,172.5C 416.183,169.428 416.516,166.428 417.5,163.5C 420.534,161.668 422.2,159.335 422.5,156.5C 428.93,153.239 434.763,154.239 440,159.5C 440.684,160.784 440.517,161.951 439.5,163C 436.924,163.606 434.59,163.106 432.5,161.5C 430.5,161.5 429.5,162.5 429.5,164.5C 430.36,166.272 431.693,167.605 433.5,168.5C 434.308,170.423 434.808,172.423 435,174.5C 436.356,175.38 437.856,175.714 439.5,175.5C 439.232,172.881 439.565,170.381 440.5,168C 443.5,167.333 446.5,167.333 449.5,168C 452.229,168.566 454.229,170.066 455.5,172.5 Z"/></g>
<g><path style="opacity:1" fill="#626262" d="M 460.5,169.5 C 462.975,170.687 463.975,172.687 463.5,175.5C 462.508,173.544 461.508,171.544 460.5,169.5 Z"/></g>
<g><path style="opacity:1" fill="#a3a3a3" d="M 410.5,161.5 C 410.002,167.089 410.668,172.422 412.5,177.5C 411.542,177.047 410.708,176.381 410,175.5C 409.185,170.648 409.352,165.981 410.5,161.5 Z"/></g>
<g><path style="opacity:1" fill="#949494" d="M 455.5,172.5 C 458.012,174.237 459.012,176.737 458.5,180C 458.333,181.833 458.167,183.667 458,185.5C 457.617,186.056 457.117,186.389 456.5,186.5C 458.067,181.627 457.734,176.961 455.5,172.5 Z"/></g>
<g><path style="opacity:1" fill="#c6c6c6" d="M 412.5,177.5 C 414.054,178.914 415.388,180.581 416.5,182.5C 413.64,185.584 411.307,188.918 409.5,192.5C 409.667,188.751 411,185.585 413.5,183C 412.767,181.234 412.433,179.401 412.5,177.5 Z"/></g>
<g><path style="opacity:1" fill="#5e5e5e" d="M 286.5,187.5 C 291.579,186.174 296.579,186.507 301.5,188.5C 296.482,188.387 291.482,188.053 286.5,187.5 Z"/></g>
<g><path style="opacity:1" fill="#aeaeae" d="M 393.5,187.5 C 388.968,187.818 384.634,187.485 380.5,186.5C 383.884,186.66 387.217,186.327 390.5,185.5C 392.038,185.453 393.038,186.12 393.5,187.5 Z"/></g>
<g><path style="opacity:1" fill="#b3b3b3" d="M 432.5,186.5 C 428.688,187.324 424.688,187.824 420.5,188C 419.956,188.717 419.289,189.217 418.5,189.5C 418.979,187.156 420.479,185.822 423,185.5C 426.105,186.367 429.272,186.701 432.5,186.5 Z"/></g>
<g><path style="opacity:1" fill="#c7c7c7" d="M 370.5,192.5 C 368.167,192.5 365.833,192.5 363.5,192.5C 363.5,194.167 363.5,195.833 363.5,197.5C 365.5,197.5 367.5,197.5 369.5,197.5C 367.393,198.468 365.059,198.802 362.5,198.5C 362.665,195.482 362.498,192.482 362,189.5C 361.768,190.737 361.268,191.737 360.5,192.5C 360.567,191.041 360.234,189.708 359.5,188.5C 360.822,188.67 361.989,188.337 363,187.5C 363.483,188.448 363.649,189.448 363.5,190.5C 365.527,190.338 367.527,190.505 369.5,191C 370.056,191.383 370.389,191.883 370.5,192.5 Z"/></g>
<g><path style="opacity:1" fill="#717171" d="M 527.5,187.5 C 523.131,187.467 518.798,187.8 514.5,188.5C 516.848,187.048 519.514,186.382 522.5,186.5C 524.369,186.507 526.036,186.84 527.5,187.5 Z"/></g>
<g><path style="opacity:1" fill="#e5e5e5" d="M 286.5,187.5 C 291.482,188.053 296.482,188.387 301.5,188.5C 304.127,189.105 306.793,189.605 309.5,190C 311.211,191.133 311.711,192.633 311,194.5C 306.564,195.474 302.064,195.474 297.5,194.5C 294.155,192.783 290.489,192.116 286.5,192.5C 285.28,190.716 285.28,189.05 286.5,187.5 Z"/></g>
<g><path style="opacity:1" fill="#e7e7e7" d="M 527.5,187.5 C 528.93,189.455 528.597,191.121 526.5,192.5C 520.463,192.126 514.797,193.126 509.5,195.5C 507.5,195.5 505.5,195.5 503.5,195.5C 503.261,193.533 503.594,191.699 504.5,190C 507.688,188.684 511.022,188.184 514.5,188.5C 518.798,187.8 523.131,187.467 527.5,187.5 Z"/></g>
<g><path style="opacity:1" fill="#565656" d="M 456.5,186.5 C 455.37,188.315 454.704,190.315 454.5,192.5C 452.984,189.92 453.651,187.92 456.5,186.5 Z"/></g>
<g><path style="opacity:1" fill="#6e6e6e" d="M 286.5,192.5 C 290.489,192.116 294.155,192.783 297.5,194.5C 293.64,194.192 289.974,193.525 286.5,192.5 Z"/></g>
<g><path style="opacity:1" fill="#444444" d="M 526.5,192.5 C 521.156,194.633 515.489,195.633 509.5,195.5C 514.797,193.126 520.463,192.126 526.5,192.5 Z"/></g>
<g><path style="opacity:1" fill="#212121" d="M 370.5,192.5 C 371.93,194.455 371.597,196.121 369.5,197.5C 367.5,197.5 365.5,197.5 363.5,197.5C 363.5,195.833 363.5,194.167 363.5,192.5C 365.833,192.5 368.167,192.5 370.5,192.5 Z"/></g>
<g><path style="opacity:1" fill="#242424" d="M 442.5,192.5 C 445.167,192.5 447.833,192.5 450.5,192.5C 451.245,195.93 449.911,197.597 446.5,197.5C 443.089,197.597 441.755,195.93 442.5,192.5 Z"/></g>
<g><path style="opacity:1" fill="#c5c5c5" d="M 333.5,180.5 C 331.784,189.628 330.451,198.795 329.5,208C 330.988,215.683 331.988,223.516 332.5,231.5C 328.166,218.212 327.333,204.545 330,190.5C 330.373,186.782 331.539,183.449 333.5,180.5 Z"/></g>
<g><path style="opacity:1" fill="#9a9a9a" d="M 403.5,204.5 C 403.747,206.858 403.081,208.858 401.5,210.5C 400.957,210.44 400.624,210.107 400.5,209.5C 401.696,207.855 402.696,206.189 403.5,204.5 Z"/></g>
<g><path style="opacity:1" fill="#4c4c4c" d="M 455.5,217.5 C 454.081,218.451 452.415,218.784 450.5,218.5C 450.5,219.833 450.5,221.167 450.5,222.5C 452.5,222.5 454.5,222.5 456.5,222.5C 456.5,222.833 456.5,223.167 456.5,223.5C 454.167,223.5 451.833,223.5 449.5,223.5C 449.5,221.5 449.5,219.5 449.5,217.5C 451.5,217.5 453.5,217.5 455.5,217.5 Z"/></g>
<g><path style="opacity:1" fill="#a0a0a0" d="M 310.5,228.5 C 306.19,229.08 301.857,229.414 297.5,229.5C 301.754,227.591 306.088,227.258 310.5,228.5 Z"/></g>
<g><path style="opacity:1" fill="#eaeaea" d="M 310.5,228.5 C 311.801,229.884 311.801,231.384 310.5,233C 306.218,234.157 301.884,234.99 297.5,235.5C 294.193,236.051 290.86,236.384 287.5,236.5C 287.286,234.856 287.62,233.356 288.5,232C 290.833,231.667 293.167,231.333 295.5,231C 296.056,230.617 296.389,230.117 296.5,229.5C 296.833,229.5 297.167,229.5 297.5,229.5C 301.857,229.414 306.19,229.08 310.5,228.5 Z"/></g>
<g><path style="opacity:1" fill="#adadad" d="M 456.5,223.5 C 456.5,223.167 456.5,222.833 456.5,222.5C 458.766,222.141 460.599,222.808 462,224.5C 462.805,227.696 462.638,230.696 461.5,233.5C 461.54,230.119 461.207,226.786 460.5,223.5C 459.167,223.5 457.833,223.5 456.5,223.5 Z"/></g>
<g><path style="opacity:1" fill="#e6e6e6" d="M 514.5,235.5 C 512.485,234.076 510.152,233.41 507.5,233.5C 503.092,233.938 501.425,231.938 502.5,227.5C 510.625,228.292 518.625,229.792 526.5,232C 527.833,233.667 527.833,235.333 526.5,237C 522.461,237.048 518.461,236.548 514.5,235.5 Z"/></g>
<g><path style="opacity:1" fill="#a1a1a1" d="M 296.5,229.5 C 296.389,230.117 296.056,230.617 295.5,231C 293.167,231.333 290.833,231.667 288.5,232C 287.62,233.356 287.286,234.856 287.5,236.5C 286.193,234.777 286.193,232.943 287.5,231C 290.478,230.304 293.478,229.804 296.5,229.5 Z"/></g>
<g><path style="opacity:1" fill="#eaeaea" d="M 405.5,216.5 C 406.5,216.5 407.5,216.5 408.5,216.5C 407.516,224.228 409.183,231.228 413.5,237.5C 413.444,238.737 412.944,239.737 412,240.5C 410.304,252.456 414.804,260.789 425.5,265.5C 422.673,266.974 420.173,266.64 418,264.5C 417.517,265.448 417.351,266.448 417.5,267.5C 410.397,260.962 403.397,260.962 396.5,267.5C 395.047,266.175 395.381,265.342 397.5,265C 395.801,264.607 394.301,265.107 393,266.5C 391.238,266.056 391.405,265.556 393.5,265C 391.803,264.616 390.137,264.782 388.5,265.5C 394.867,262.797 399.201,258.13 401.5,251.5C 402.158,245.937 402.492,240.271 402.5,234.5C 405.051,228.847 406.051,222.847 405.5,216.5 Z"/></g>
<g><path style="opacity:1" fill="#949494" d="M 444.5,234.5 C 445.919,233.549 447.585,233.216 449.5,233.5C 449.784,235.415 449.451,237.081 448.5,238.5C 448.5,237.167 448.5,235.833 448.5,234.5C 447.167,234.5 445.833,234.5 444.5,234.5 Z"/></g>
<g><path style="opacity:1" fill="#838383" d="M 507.5,233.5 C 510.152,233.41 512.485,234.076 514.5,235.5C 511.848,235.59 509.515,234.924 507.5,233.5 Z"/></g>
<g><path style="opacity:1" fill="#555555" d="M 297.5,235.5 C 295.883,236.972 293.883,237.639 291.5,237.5C 289.955,237.489 288.622,237.156 287.5,236.5C 290.86,236.384 294.193,236.051 297.5,235.5 Z"/></g>
<g><path style="opacity:1" fill="#808080" d="M 402.5,234.5 C 402.492,240.271 402.158,245.937 401.5,251.5C 401.916,246.811 401.249,242.311 399.5,238C 399.978,236.358 400.978,235.191 402.5,234.5 Z"/></g>
<g><path style="opacity:1" fill="#8b8b8b" d="M 420.5,239.5 C 418.708,242.546 417.708,245.879 417.5,249.5C 415.741,245.436 416.741,242.103 420.5,239.5 Z"/></g>
<g><path style="opacity:1" fill="#e4e4e4" d="M 486.5,266.5 C 487.873,266.343 489.207,266.51 490.5,267C 496,271.167 501.5,275.333 507,279.5C 507.667,280.5 507.667,281.5 507,282.5C 505.274,283.576 503.441,283.743 501.5,283C 496.5,279.333 491.5,275.667 486.5,272C 485.248,270.172 485.248,268.339 486.5,266.5 Z"/></g>
<g><path style="opacity:1" fill="#e4e4e4" d="M 404.5,267.5 C 410.474,267.048 412.974,269.715 412,275.5C 408.667,279.5 405.333,279.5 402,275.5C 401.018,272.225 401.851,269.559 404.5,267.5 Z"/></g>
<g><path style="opacity:1" fill="#eaeaea" d="M 323.5,266.5 C 327.138,265.737 328.638,267.07 328,270.5C 323.258,274.454 318.424,278.287 313.5,282C 311.635,283.301 309.635,283.635 307.5,283C 306.483,281.951 306.316,280.784 307,279.5C 312.687,275.303 318.187,270.97 323.5,266.5 Z"/></g>
<g><path style="opacity:1" fill="#939393" d="M 365.5,287.5 C 367.074,289.102 367.741,291.102 367.5,293.5C 365.926,291.898 365.259,289.898 365.5,287.5 Z"/></g>
<g><path style="opacity:1" fill="#a4a4a4" d="M 403.5,283.5 C 404.49,289.645 404.823,295.978 404.5,302.5C 392.167,302.5 379.833,302.5 367.5,302.5C 367.5,299.833 367.5,297.167 367.5,294.5C 368.461,296.265 368.795,298.265 368.5,300.5C 380.167,300.5 391.833,300.5 403.5,300.5C 403.5,294.833 403.5,289.167 403.5,283.5 Z"/></g>
<g><path style="opacity:1" fill="#d1d1d1" d="M 410.5,283.5 C 411.167,283.5 411.833,283.5 412.5,283.5C 411.548,289.075 411.214,294.741 411.5,300.5C 423.167,300.5 434.833,300.5 446.5,300.5C 446.5,300.833 446.5,301.167 446.5,301.5C 434.5,301.5 422.5,301.5 410.5,301.5C 410.5,295.5 410.5,289.5 410.5,283.5 Z"/></g>
<g><path style="opacity:1" fill="#666666" d="M 410.5,283.5 C 410.5,289.5 410.5,295.5 410.5,301.5C 422.5,301.5 434.5,301.5 446.5,301.5C 434.345,302.495 422.011,302.829 409.5,302.5C 409.177,295.978 409.51,289.645 410.5,283.5 Z"/></g>
<g><path style="opacity:1" fill="#939393" d="M 447.5,308.5 C 419.789,308.184 392.122,308.517 364.5,309.5C 364.611,308.883 364.944,308.383 365.5,308C 393.003,307.17 420.336,307.336 447.5,308.5 Z"/></g>
<g><path style="opacity:1" fill="#f9f9f9" d="M 447.5,308.5 C 452.578,311.248 453.745,315.248 451,320.5C 450.097,321.701 448.931,322.535 447.5,323C 420.161,323.833 392.827,323.667 365.5,322.5C 360.649,318.427 360.316,314.094 364.5,309.5C 392.122,308.517 419.789,308.184 447.5,308.5 Z"/></g>
<g><path style="opacity:1" fill="#f6f6f6" d="M 445.5,331.5 C 447.123,334.215 447.79,337.215 447.5,340.5C 446.5,342.833 444.833,344.5 442.5,345.5C 418.122,345.814 393.788,345.481 369.5,344.5C 368.026,343.564 367.026,342.23 366.5,340.5C 366.21,337.215 366.877,334.215 368.5,331.5C 368.918,330.778 369.584,330.278 370.5,330C 394.5,329.333 418.5,329.333 442.5,330C 443.527,330.513 444.527,331.013 445.5,331.5 Z"/></g>
<g><path style="opacity:1" fill="#919191" d="M 368.5,331.5 C 366.877,334.215 366.21,337.215 366.5,340.5C 365.371,338.372 365.204,336.039 366,333.5C 366.708,332.619 367.542,331.953 368.5,331.5 Z"/></g>
<g><path style="opacity:1" fill="#898989" d="M 445.5,331.5 C 446.458,331.953 447.292,332.619 448,333.5C 448.796,336.039 448.629,338.372 447.5,340.5C 447.79,337.215 447.123,334.215 445.5,331.5 Z"/></g>
<g><path style="opacity:1" fill="#4d4d4d" d="M 369.5,344.5 C 393.788,345.481 418.122,345.814 442.5,345.5C 418.67,346.663 394.67,346.83 370.5,346C 369.944,345.617 369.611,345.117 369.5,344.5 Z"/></g>
<g><path style="opacity:1" fill="#535353" d="M 430.5,351.5 C 415.167,351.5 399.833,351.5 384.5,351.5C 384.5,353.167 384.5,354.833 384.5,356.5C 383.539,354.735 383.205,352.735 383.5,350.5C 399.342,350.17 415.009,350.504 430.5,351.5 Z"/></g>
<g><path style="opacity:1" fill="#c6c6c6" d="M 430.5,351.5 C 430.435,354.428 429.768,357.095 428.5,359.5C 428.244,357.208 428.577,355.041 429.5,353C 414.837,352.5 400.17,352.333 385.5,352.5C 385.575,355.206 385.908,357.873 386.5,360.5C 384.896,359.713 384.229,358.38 384.5,356.5C 384.5,354.833 384.5,353.167 384.5,351.5C 399.833,351.5 415.167,351.5 430.5,351.5 Z"/></g>
<g><path style="opacity:1" fill="#f8f8f8" d="M 428.5,359.5 C 421.345,372.17 410.678,376.337 396.5,372C 391.873,369.212 388.539,365.378 386.5,360.5C 385.908,357.873 385.575,355.206 385.5,352.5C 400.17,352.333 414.837,352.5 429.5,353C 428.577,355.041 428.244,357.208 428.5,359.5 Z"/></g>
<g><path style="opacity:1" fill="#dddddd" d="M 512.5,531.5 C 513.423,499.179 513.757,466.845 513.5,434.5C 474.165,434.333 434.832,434.5 395.5,435C 396.833,435.333 398.167,435.667 399.5,436C 394.371,436.971 389.371,437.138 384.5,436.5C 386.562,435.224 388.896,434.39 391.5,434C 432.499,433.5 473.499,433.333 514.5,433.5C 514.667,464.502 514.5,495.502 514,526.5C 513.802,528.382 513.302,530.048 512.5,531.5 Z"/></g>
<g><path style="opacity:1" fill="#fdfdfd" d="M 317.5,433.5 C 317.5,442.5 317.5,451.5 317.5,460.5C 295.66,460.169 273.994,460.503 252.5,461.5C 251.502,498.663 251.168,535.996 251.5,573.5C 242.833,573.5 234.167,573.5 225.5,573.5C 225.832,535.996 225.498,498.663 224.5,461.5C 202.673,460.503 180.673,460.169 158.5,460.5C 158.5,451.5 158.5,442.5 158.5,433.5C 211.5,433.5 264.5,433.5 317.5,433.5 Z"/></g>
<g><path style="opacity:1" fill="#fcfcfc" d="M 512.5,531.5 C 506.918,552.749 493.584,566.415 472.5,572.5C 430.524,573.478 388.524,573.811 346.5,573.5C 346.5,541.833 346.5,510.167 346.5,478.5C 346.5,478.167 346.5,477.833 346.5,477.5C 348.009,474.322 349.342,470.989 350.5,467.5C 353.012,465.535 354.345,462.868 354.5,459.5C 356.111,455.949 358.444,452.949 361.5,450.5C 363.736,449.611 365.736,448.278 367.5,446.5C 369.398,447.734 371.065,447.401 372.5,445.5C 373.429,444.311 373.762,442.978 373.5,441.5C 374.93,441.421 376.264,441.754 377.5,442.5C 379.01,438.752 380.177,439.085 381,443.5C 381.139,440.555 382.306,438.221 384.5,436.5C 389.371,437.138 394.371,436.971 399.5,436C 398.167,435.667 396.833,435.333 395.5,435C 434.832,434.5 474.165,434.333 513.5,434.5C 513.757,466.845 513.423,499.179 512.5,531.5 Z"/></g>
<g><path style="opacity:1" fill="#fcfcfc" d="M 683.5,433.5 C 692.5,433.5 701.5,433.5 710.5,433.5C 710.5,480.167 710.5,526.833 710.5,573.5C 699.167,573.5 687.833,573.5 676.5,573.5C 641.167,538.833 606.167,503.833 571.5,468.5C 571.44,467.957 571.107,467.624 570.5,467.5C 569.5,502.827 569.167,538.16 569.5,573.5C 560.833,573.5 552.167,573.5 543.5,573.5C 543.517,527.381 543.517,481.381 543.5,435.5C 554.075,434.557 565.075,434.224 576.5,434.5C 610.833,468.5 645.167,502.5 679.5,536.5C 679.833,537.5 680.5,538.167 681.5,538.5C 681.56,539.043 681.893,539.376 682.5,539.5C 683.5,504.173 683.833,468.84 683.5,433.5 Z"/></g>
<g><path style="opacity:1" fill="#1f1f1f" d="M 682.5,433.5 C 682.832,468.671 682.498,503.671 681.5,538.5C 680.5,538.167 679.833,537.5 679.5,536.5C 681.165,502.345 682.165,468.012 682.5,433.5 Z"/></g>
<g><path style="opacity:1" fill="#7f7f7f" d="M 682.5,433.5 C 682.833,433.5 683.167,433.5 683.5,433.5C 683.833,468.84 683.5,504.173 682.5,539.5C 681.893,539.376 681.56,539.043 681.5,538.5C 682.498,503.671 682.832,468.671 682.5,433.5 Z"/></g>
<g><path style="opacity:1" fill="#eaeaea" d="M 542.5,433.5 C 554.012,433.172 565.346,433.505 576.5,434.5C 565.075,434.224 554.075,434.557 543.5,435.5C 543.517,481.381 543.517,527.381 543.5,573.5C 552.167,573.5 560.833,573.5 569.5,573.5C 569.5,573.833 569.5,574.167 569.5,574.5C 560.5,574.5 551.5,574.5 542.5,574.5C 542.5,527.5 542.5,480.5 542.5,433.5 Z"/></g>
<g><path style="opacity:1" fill="#dcdcdc" d="M 384.5,436.5 C 382.306,438.221 381.139,440.555 381,443.5C 380.177,439.085 379.01,438.752 377.5,442.5C 376.264,441.754 374.93,441.421 373.5,441.5C 373.762,442.978 373.429,444.311 372.5,445.5C 371.065,447.401 369.398,447.734 367.5,446.5C 365.736,448.278 363.736,449.611 361.5,450.5C 367.639,443.368 375.306,438.701 384.5,436.5 Z"/></g>
<g><path style="opacity:1" fill="#9c9c9c" d="M 158.5,460.5 C 180.673,460.169 202.673,460.503 224.5,461.5C 224.5,499.167 224.5,536.833 224.5,574.5C 223.502,537.004 223.168,499.337 223.5,461.5C 201.66,461.831 179.994,461.497 158.5,460.5 Z"/></g>
<g><path style="opacity:1" fill="#bebebe" d="M 317.5,433.5 C 318.494,442.652 318.827,451.985 318.5,461.5C 296.5,461.5 274.5,461.5 252.5,461.5C 273.994,460.503 295.66,460.169 317.5,460.5C 317.5,451.5 317.5,442.5 317.5,433.5 Z"/></g>
<g><path style="opacity:1" fill="#c0c0c0" d="M 395.5,461.5 C 416.994,460.503 438.66,460.169 460.5,460.5C 460.715,462.179 460.048,463.179 458.5,463.5C 437.86,461.511 416.86,460.845 395.5,461.5 Z"/></g>
<g><path style="opacity:1" fill="#525252" d="M 395.5,461.5 C 416.86,460.845 437.86,461.511 458.5,463.5C 458.167,463.5 457.833,463.5 457.5,463.5C 435.98,462.206 414.313,462.206 392.5,463.5C 393.29,462.599 394.29,461.932 395.5,461.5 Z"/></g>
<g><path style="opacity:1" fill="#030303" d="M 457.5,463.5 C 429.878,485.121 402.544,507.121 375.5,529.5C 374.504,514.676 374.171,499.676 374.5,484.5C 374.5,484.167 374.5,483.833 374.5,483.5C 376.074,481.898 376.741,479.898 376.5,477.5C 379.723,470.268 385.056,465.602 392.5,463.5C 414.313,462.206 435.98,462.206 457.5,463.5 Z"/></g>
<g><path style="opacity:1" fill="#333333" d="M 252.5,461.5 C 274.5,461.5 296.5,461.5 318.5,461.5C 297.006,462.497 275.34,462.831 253.5,462.5C 253.832,500.004 253.498,537.337 252.5,574.5C 252.5,536.833 252.5,499.167 252.5,461.5 Z"/></g>
<g><path style="opacity:1" fill="#b7b7b7" d="M 354.5,459.5 C 354.345,462.868 353.012,465.535 350.5,467.5C 350.5,466.833 350.5,466.167 350.5,465.5C 351.34,463.147 352.674,461.147 354.5,459.5 Z"/></g>
<g><path style="opacity:1" fill="#d1d1d1" d="M 224.5,461.5 C 225.498,498.663 225.832,535.996 225.5,573.5C 234.167,573.5 242.833,573.5 251.5,573.5C 251.168,535.996 251.502,498.663 252.5,461.5C 252.5,499.167 252.5,536.833 252.5,574.5C 243.167,574.5 233.833,574.5 224.5,574.5C 224.5,536.833 224.5,499.167 224.5,461.5 Z"/></g>
<g><path style="opacity:1" fill="#7c7c7c" d="M 350.5,465.5 C 350.5,466.167 350.5,466.833 350.5,467.5C 349.342,470.989 348.009,474.322 346.5,477.5C 346.861,473.085 348.194,469.085 350.5,465.5 Z"/></g>
<g><path style="opacity:1" fill="#8a8a8a" d="M 571.5,468.5 C 570.502,503.663 570.168,538.996 570.5,574.5C 570.167,574.5 569.833,574.5 569.5,574.5C 569.5,574.167 569.5,573.833 569.5,573.5C 569.167,538.16 569.5,502.827 570.5,467.5C 571.107,467.624 571.44,467.957 571.5,468.5 Z"/></g>
<g><path style="opacity:1" fill="#040404" d="M 462.5,545.5 C 442.326,545.83 422.326,545.497 402.5,544.5C 429.834,521.841 457.5,499.508 485.5,477.5C 485.833,485.167 486.167,492.833 486.5,500.5C 486.623,509.239 486.123,517.905 485,526.5C 481.357,537.404 473.857,543.738 462.5,545.5 Z"/></g>
<g><path style="opacity:1" fill="#4d4d4d" d="M 376.5,477.5 C 376.741,479.898 376.074,481.898 374.5,483.5C 374.259,481.102 374.926,479.102 376.5,477.5 Z"/></g>
<g><path style="opacity:1" fill="#5d5d5d" d="M 374.5,484.5 C 374.171,499.676 374.504,514.676 375.5,529.5C 375.44,530.043 375.107,530.376 374.5,530.5C 373.174,515.005 373.174,499.672 374.5,484.5 Z"/></g>
<g><path style="opacity:1" fill="#4e4e4e" d="M 402.5,544.5 C 422.326,545.497 442.326,545.83 462.5,545.5C 462.5,546.167 462.167,546.5 461.5,546.5C 440.993,546.83 420.66,546.497 400.5,545.5C 400.842,544.662 401.508,544.328 402.5,544.5 Z"/></g>
<g><path style="opacity:1" fill="#d1d1d1" d="M 400.5,545.5 C 420.66,546.497 440.993,546.83 461.5,546.5C 440.996,547.828 420.329,547.828 399.5,546.5C 399.624,545.893 399.957,545.56 400.5,545.5 Z"/></g>
<g><path style="opacity:1" fill="#c7c7c7" d="M 346.5,478.5 C 346.5,510.167 346.5,541.833 346.5,573.5C 388.524,573.811 430.524,573.478 472.5,572.5C 471.737,573.268 470.737,573.768 469.5,574C 428.168,574.5 386.835,574.667 345.5,574.5C 345.168,542.329 345.502,510.329 346.5,478.5 Z"/></g>
<g><path style="opacity:1" fill="#b9b9b9" d="M 710.5,433.5 C 711.499,480.33 711.832,527.33 711.5,574.5C 699.655,574.828 687.988,574.495 676.5,573.5C 687.833,573.5 699.167,573.5 710.5,573.5C 710.5,526.833 710.5,480.167 710.5,433.5 Z"/></g>
<g><path style="opacity:1" fill="#777777" d="M 103.5,433.5 C 103.5,480.5 103.5,527.5 103.5,574.5C 112.5,574.5 121.5,574.5 130.5,574.5C 130.5,527.5 130.5,480.5 130.5,433.5C 131.499,480.664 131.832,527.997 131.5,575.5C 121.833,575.5 112.167,575.5 102.5,575.5C 102.168,527.997 102.501,480.664 103.5,433.5 Z"/></g>
<g><path style="opacity:1" fill="#fdfdfd" d="M 103.5,433.5 C 112.5,433.5 121.5,433.5 130.5,433.5C 130.5,480.5 130.5,527.5 130.5,574.5C 121.5,574.5 112.5,574.5 103.5,574.5C 103.5,527.5 103.5,480.5 103.5,433.5 Z"/></g>
<g><path style="opacity:1" fill="#676767" d="M 542.5,433.5 C 542.5,480.5 542.5,527.5 542.5,574.5C 551.5,574.5 560.5,574.5 569.5,574.5C 569.833,574.5 570.167,574.5 570.5,574.5C 561.014,575.494 551.348,575.827 541.5,575.5C 541.168,527.997 541.501,480.664 542.5,433.5 Z"/></g>
<g><path style="opacity:1" fill="#444444" d="M 165.5,635.5 C 180.324,634.504 195.324,634.171 210.5,634.5C 210.737,635.791 210.404,636.791 209.5,637.5C 195.205,635.517 180.538,634.85 165.5,635.5 Z"/></g>
<g><path style="opacity:1" fill="#484848" d="M 467.5,635.5 C 482.324,634.504 497.324,634.171 512.5,634.5C 512.784,636.415 512.451,638.081 511.5,639.5C 511.5,638.167 511.5,636.833 511.5,635.5C 498.5,635.5 485.5,635.5 472.5,635.5C 470.833,635.5 469.167,635.5 467.5,635.5 Z"/></g>
<g><path style="opacity:1" fill="#b2b2b2" d="M 239.5,638.5 C 239.611,637.883 239.944,637.383 240.5,637C 234.5,636.333 228.5,636.333 222.5,637C 223.056,637.383 223.389,637.883 223.5,638.5C 221.952,638.179 221.285,637.179 221.5,635.5C 228.167,635.5 234.833,635.5 241.5,635.5C 241.715,637.179 241.048,638.179 239.5,638.5 Z"/></g>
<g><path style="opacity:1" fill="#ababab" d="M 271.5,638.5 C 271.611,637.883 271.944,637.383 272.5,637C 267.5,636.333 262.5,636.333 257.5,637C 258.056,637.383 258.389,637.883 258.5,638.5C 256.952,638.179 256.285,637.179 256.5,635.5C 262.167,635.5 267.833,635.5 273.5,635.5C 273.715,637.179 273.048,638.179 271.5,638.5 Z"/></g>
<g><path style="opacity:1" fill="#b1b1b1" d="M 319.5,638.5 C 308.614,636.485 297.614,635.985 286.5,637C 287.056,637.383 287.389,637.883 287.5,638.5C 285.952,638.179 285.285,637.179 285.5,635.5C 295.172,635.334 304.839,635.5 314.5,636C 316.653,636.099 318.319,636.933 319.5,638.5 Z"/></g>
<g><path style="opacity:1" fill="#b6b6b6" d="M 399.5,638.5 C 397.429,637.191 394.929,636.525 392,636.5C 389.5,636.667 387,636.833 384.5,637C 385.056,637.383 385.389,637.883 385.5,638.5C 383.952,638.179 383.285,637.179 383.5,635.5C 389.167,635.5 394.833,635.5 400.5,635.5C 400.737,636.791 400.404,637.791 399.5,638.5 Z"/></g>
<g><path style="opacity:1" fill="#b2b2b2" d="M 649.5,637.5 C 644.35,636.349 639.016,636.183 633.5,637C 634.056,637.383 634.389,637.883 634.5,638.5C 632.952,638.179 632.285,637.179 632.5,635.5C 638.537,635.171 644.537,635.504 650.5,636.5C 650.376,637.107 650.043,637.44 649.5,637.5 Z"/></g>
<g><path style="opacity:1" fill="#e9e9e9" d="M 165.5,635.5 C 180.538,634.85 195.205,635.517 209.5,637.5C 208.612,640.054 208.279,642.721 208.5,645.5C 206.821,645.715 205.821,645.048 205.5,643.5C 204.084,641.084 202.084,639.084 199.5,637.5C 197.224,638.213 194.891,638.713 192.5,639C 191.944,639.383 191.611,639.883 191.5,640.5C 191.333,653.504 191.5,666.504 192,679.5C 193.33,680.582 194.83,681.249 196.5,681.5C 196.918,682.222 197.584,682.722 198.5,683C 190.507,683.5 182.507,683.666 174.5,683.5C 177.014,682.109 179.514,680.443 182,678.5C 182.827,665.66 182.66,652.993 181.5,640.5C 178.696,639.362 175.696,639.195 172.5,640C 170.68,640.2 169.347,641.034 168.5,642.5C 167.33,644.279 165.664,645.279 163.5,645.5C 163.959,642.123 164.626,638.789 165.5,635.5 Z"/></g>
<g><path style="opacity:1" fill="#e6e6e6" d="M 239.5,638.5 C 238.85,638.804 238.183,639.137 237.5,639.5C 236.334,650.485 236.168,661.485 237,672.5C 238.332,674.66 239.832,676.66 241.5,678.5C 241.611,679.117 241.944,679.617 242.5,680C 246.689,680.812 250.689,680.645 254.5,679.5C 258.609,677.887 261.109,674.887 262,670.5C 262.5,660.839 262.666,651.172 262.5,641.5C 263.33,650.991 263.83,660.658 264,670.5C 264.317,668.699 264.984,668.366 266,669.5C 266.17,660.324 266.67,651.324 267.5,642.5C 267.666,651.839 267.5,661.173 267,670.5C 266.252,676.686 263.085,681.019 257.5,683.5C 251.894,684.407 246.227,684.74 240.5,684.5C 234.103,682.417 229.936,678.083 228,671.5C 227.832,661.151 227.332,650.817 226.5,640.5C 225.482,639.807 224.482,639.141 223.5,638.5C 223.389,637.883 223.056,637.383 222.5,637C 228.5,636.333 234.5,636.333 240.5,637C 239.944,637.383 239.611,637.883 239.5,638.5 Z"/></g>
<g><path style="opacity:1" fill="#f7f7f7" d="M 271.5,638.5 C 269.167,638.833 267.833,640.167 267.5,642.5C 266.67,651.324 266.17,660.324 266,669.5C 264.984,668.366 264.317,668.699 264,670.5C 263.83,660.658 263.33,650.991 262.5,641.5C 261.564,640.026 260.23,639.026 258.5,638.5C 258.389,637.883 258.056,637.383 257.5,637C 262.5,636.333 267.5,636.333 272.5,637C 271.944,637.383 271.611,637.883 271.5,638.5 Z"/></g>
<g><path style="opacity:1" fill="#eeeeee" d="M 388.5,668.5 C 388.56,669.043 388.893,669.376 389.5,669.5C 390.822,660.008 390.822,650.675 389.5,641.5C 388.564,640.026 387.23,639.026 385.5,638.5C 385.389,637.883 385.056,637.383 384.5,637C 387,636.833 389.5,636.667 392,636.5C 394.929,636.525 397.429,637.191 399.5,638.5C 397.938,638.733 396.605,639.4 395.5,640.5C 395.161,655.362 394.161,670.028 392.5,684.5C 384.527,675.86 376.194,667.527 367.5,659.5C 365.573,656.233 363.239,653.233 360.5,650.5C 359.791,649.596 358.791,649.263 357.5,649.5C 357.173,659.015 357.506,668.348 358.5,677.5C 358.5,678.167 358.833,678.5 359.5,678.5C 359.833,679.167 360.167,679.833 360.5,680.5C 361.347,681.966 362.68,682.8 364.5,683C 359.167,683.667 353.833,683.667 348.5,683C 349.056,682.617 349.389,682.117 349.5,681.5C 351.173,680.657 352.34,679.324 353,677.5C 353.667,665.5 353.667,653.5 353,641.5C 351.159,639.841 349.992,637.841 349.5,635.5C 352.187,635.336 354.854,635.503 357.5,636C 367.7,647.032 378.033,657.865 388.5,668.5 Z"/></g>
<g><path style="opacity:1" fill="#f8f8f8" d="M 453.5,636.5 C 452.564,637.974 451.23,638.974 449.5,639.5C 448.883,639.611 448.383,639.944 448,640.5C 447.173,653.007 447.34,665.34 448.5,677.5C 448.989,680.324 450.656,681.657 453.5,681.5C 448.944,683.442 443.944,684.108 438.5,683.5C 438.629,681.784 438.962,680.117 439.5,678.5C 439.5,678.167 439.5,677.833 439.5,677.5C 440.66,665.007 440.827,652.34 440,639.5C 438.56,637.954 436.727,637.121 434.5,637C 440.825,636.5 447.158,636.334 453.5,636.5 Z"/></g>
<g><path style="opacity:1" fill="#f9f9f9" d="M 467.5,635.5 C 469.167,635.5 470.833,635.5 472.5,635.5C 485.006,636.167 497.673,636.833 510.5,637.5C 505.618,638.648 500.451,638.648 495,637.5C 493.933,638.191 492.766,638.691 491.5,639C 492.158,652.265 492.825,665.431 493.5,678.5C 494.401,680.727 496.067,681.727 498.5,681.5C 498.918,682.222 499.584,682.722 500.5,683C 492.507,683.5 484.507,683.666 476.5,683.5C 478.813,681.479 481.479,679.813 484.5,678.5C 485.166,672.175 485.5,665.675 485.5,659C 485.497,652.131 484.83,645.631 483.5,639.5C 480.15,639.335 476.817,639.502 473.5,640C 472.058,640.377 471.058,641.21 470.5,642.5C 469.288,643.23 468.288,644.23 467.5,645.5C 466.808,642.23 466.808,638.897 467.5,635.5 Z"/></g>
<g><path style="opacity:1" fill="#ececec" d="M 637.5,667.5 C 637.369,668.376 637.702,669.043 638.5,669.5C 639.822,660.008 639.822,650.675 638.5,641.5C 637.564,640.026 636.23,639.026 634.5,638.5C 634.389,637.883 634.056,637.383 633.5,637C 639.016,636.183 644.35,636.349 649.5,637.5C 648.152,638.601 646.652,639.601 645,640.5C 644.5,655.163 644.333,669.83 644.5,684.5C 643.127,684.657 641.793,684.49 640.5,684C 630.3,672.968 619.967,662.135 609.5,651.5C 609.5,651.167 609.5,650.833 609.5,650.5C 608.791,649.596 607.791,649.263 606.5,649.5C 606.173,659.015 606.506,668.348 607.5,677.5C 607.833,677.5 608.167,677.5 608.5,677.5C 608.5,678.167 608.5,678.833 608.5,679.5C 609.749,681.136 611.416,682.303 613.5,683C 610.833,683.167 608.167,683.333 605.5,683.5C 602.41,683.478 599.743,682.812 597.5,681.5C 599.371,681.141 600.871,680.141 602,678.5C 602.667,665.833 602.667,653.167 602,640.5C 599.828,639.491 598.662,637.824 598.5,635.5C 601.187,635.336 603.854,635.503 606.5,636C 617.063,646.395 627.396,656.895 637.5,667.5 Z"/></g>
<g><path style="opacity:1" fill="#c8c8c8" d="M 205.5,643.5 C 201.267,640.91 196.6,639.91 191.5,640.5C 191.611,639.883 191.944,639.383 192.5,639C 194.891,638.713 197.224,638.213 199.5,637.5C 202.084,639.084 204.084,641.084 205.5,643.5 Z"/></g>
<g><path style="opacity:1" fill="#cdcdcd" d="M 472.5,635.5 C 485.5,635.5 498.5,635.5 511.5,635.5C 511.5,636.833 511.5,638.167 511.5,639.5C 510.539,641.265 510.205,643.265 510.5,645.5C 509.5,645.5 508.5,645.5 507.5,645.5C 507.64,643.876 506.973,642.71 505.5,642C 501.605,640.734 497.605,640.234 493.5,640.5C 493.5,653.167 493.5,665.833 493.5,678.5C 492.825,665.431 492.158,652.265 491.5,639C 492.766,638.691 493.933,638.191 495,637.5C 500.451,638.648 505.618,638.648 510.5,637.5C 497.673,636.833 485.006,636.167 472.5,635.5 Z"/></g>
<g><path style="opacity:1" fill="#7c7c7c" d="M 181.5,640.5 C 177.007,640.269 172.674,640.936 168.5,642.5C 169.347,641.034 170.68,640.2 172.5,640C 175.696,639.195 178.696,639.362 181.5,640.5 Z"/></g>
<g><path style="opacity:1" fill="#828282" d="M 483.5,639.5 C 483.5,639.833 483.5,640.167 483.5,640.5C 479.007,640.269 474.674,640.936 470.5,642.5C 471.058,641.21 472.058,640.377 473.5,640C 476.817,639.502 480.15,639.335 483.5,639.5 Z"/></g>
<g><path style="opacity:1" fill="#e9e9e9" d="M 557.5,634.5 C 570.093,632.601 578.593,637.601 583,649.5C 583.812,657.222 583.478,664.889 582,672.5C 577.132,682.392 569.298,686.558 558.5,685C 551.69,681.17 547.523,675.337 546,667.5C 542.969,653.891 546.803,642.891 557.5,634.5 Z"/></g>
<g><path style="opacity:1" fill="#0d0d0d" d="M 572.5,647.5 C 572.259,649.898 572.926,651.898 574.5,653.5C 576.097,661.171 575.597,668.837 573,676.5C 570.398,680.212 566.898,681.378 562.5,680C 553.305,668.713 551.139,656.213 556,642.5C 557.907,638.99 560.74,637.824 564.5,639C 568.07,641.068 570.737,643.901 572.5,647.5 Z"/></g>
<g><path style="opacity:1" fill="#cdcdcd" d="M 483.5,640.5 C 483.5,640.167 483.5,639.833 483.5,639.5C 484.83,645.631 485.497,652.131 485.5,659C 485.5,665.675 485.166,672.175 484.5,678.5C 484.829,665.656 484.495,652.989 483.5,640.5 Z"/></g>
<g><path style="opacity:1" fill="#707070" d="M 389.5,641.5 C 390.822,650.675 390.822,660.008 389.5,669.5C 388.893,669.376 388.56,669.043 388.5,668.5C 389.493,659.682 389.827,650.682 389.5,641.5 Z"/></g>
<g><path style="opacity:1" fill="#848484" d="M 395.5,640.5 C 395.5,655.5 395.5,670.5 395.5,685.5C 394.209,685.737 393.209,685.404 392.5,684.5C 394.161,670.028 395.161,655.362 395.5,640.5 Z"/></g>
<g><path style="opacity:1" fill="#a5a5a5" d="M 453.5,636.5 C 447.158,636.334 440.825,636.5 434.5,637C 436.727,637.121 438.56,637.954 440,639.5C 440.827,652.34 440.66,665.007 439.5,677.5C 439.667,665.162 439.5,652.829 439,640.5C 437.416,639.139 435.582,638.472 433.5,638.5C 433.5,637.5 433.5,636.5 433.5,635.5C 440.354,635.176 447.021,635.509 453.5,636.5 Z"/></g>
<g><path style="opacity:1" fill="#a6a6a6" d="M 449.5,639.5 C 448.538,652.117 448.205,664.784 448.5,677.5C 447.34,665.34 447.173,653.007 448,640.5C 448.383,639.944 448.883,639.611 449.5,639.5 Z"/></g>
<g><path style="opacity:1" fill="#292929" d="M 638.5,641.5 C 639.822,650.675 639.822,660.008 638.5,669.5C 637.702,669.043 637.369,668.376 637.5,667.5C 638.493,659.016 638.826,650.349 638.5,641.5 Z"/></g>
<g><path style="opacity:1" fill="#727272" d="M 572.5,647.5 C 574.074,649.102 574.741,651.102 574.5,653.5C 572.926,651.898 572.259,649.898 572.5,647.5 Z"/></g>
<g><path style="opacity:1" fill="#bdbdbd" d="M 609.5,650.5 C 607.529,659.105 606.862,668.105 607.5,677.5C 606.506,668.348 606.173,659.015 606.5,649.5C 607.791,649.263 608.791,649.596 609.5,650.5 Z"/></g>
<g><path style="opacity:1" fill="#434343" d="M 609.5,650.5 C 609.5,650.833 609.5,651.167 609.5,651.5C 608.507,659.984 608.174,668.651 608.5,677.5C 608.167,677.5 607.833,677.5 607.5,677.5C 606.862,668.105 607.529,659.105 609.5,650.5 Z"/></g>
<g><path style="opacity:1" fill="#a2a2a2" d="M 360.5,650.5 C 358.529,659.105 357.862,668.105 358.5,677.5C 357.506,668.348 357.173,659.015 357.5,649.5C 358.791,649.263 359.791,649.596 360.5,650.5 Z"/></g>
<g><path style="opacity:1" fill="#323232" d="M 360.5,650.5 C 363.239,653.233 365.573,656.233 367.5,659.5C 364.87,657.372 362.37,655.039 360,652.5C 359.5,661.16 359.334,669.827 359.5,678.5C 358.833,678.5 358.5,678.167 358.5,677.5C 357.862,668.105 358.529,659.105 360.5,650.5 Z"/></g>
<g><path style="opacity:1" fill="#eaeaea" d="M 319.5,638.5 C 326.966,644.608 327.3,651.108 320.5,658C 318.377,658.815 316.377,659.815 314.5,661C 316.333,662.167 318.167,663.333 320,664.5C 323.666,669.661 327.499,674.661 331.5,679.5C 333.112,681.333 334.778,683 336.5,684.5C 332.895,685.867 329.229,685.7 325.5,684C 320.208,677.04 314.542,670.373 308.5,664C 307.255,663.209 305.922,662.709 304.5,662.5C 303.081,661.549 301.415,661.216 299.5,661.5C 299.179,667.026 299.512,672.36 300.5,677.5C 301.777,680.552 304.11,681.885 307.5,681.5C 304.402,682.821 300.902,683.488 297,683.5C 293.5,683.333 290,683.167 286.5,683C 287.623,681.956 288.956,681.29 290.5,681C 291.252,680.329 291.586,679.496 291.5,678.5C 291.832,665.816 291.499,653.149 290.5,640.5C 289.482,639.807 288.482,639.141 287.5,638.5C 287.389,637.883 287.056,637.383 286.5,637C 297.614,635.985 308.614,636.485 319.5,638.5 Z"/></g>
<g><path style="opacity:1" fill="#0c0c0c" d="M 301.5,639.5 C 313.168,638.164 317.835,643.164 315.5,654.5C 311.158,657.993 306.158,659.327 300.5,658.5C 300.209,652.077 300.542,645.744 301.5,639.5 Z"/></g>
<g><path style="opacity:1" fill="#848484" d="M 304.5,662.5 C 303.167,662.5 301.833,662.5 300.5,662.5C 300.5,667.5 300.5,672.5 300.5,677.5C 299.512,672.36 299.179,667.026 299.5,661.5C 301.415,661.216 303.081,661.549 304.5,662.5 Z"/></g>
<g><path style="opacity:1" fill="#525252" d="M 241.5,678.5 C 245.768,679.373 250.102,679.706 254.5,679.5C 250.689,680.645 246.689,680.812 242.5,680C 241.944,679.617 241.611,679.117 241.5,678.5 Z"/></g>
<g><path style="opacity:1" fill="#4e4e4e" d="M 331.5,679.5 C 333.315,680.63 335.315,681.296 337.5,681.5C 337.737,682.791 337.404,683.791 336.5,684.5C 334.778,683 333.112,681.333 331.5,679.5 Z"/></g>
<g><path style="opacity:1" fill="#aaaaaa" d="M 196.5,681.5 C 197.5,681.5 198.5,681.5 199.5,681.5C 199.5,682.5 199.5,683.5 199.5,684.5C 190.983,684.826 182.65,684.493 174.5,683.5C 182.507,683.666 190.507,683.5 198.5,683C 197.584,682.722 196.918,682.222 196.5,681.5 Z"/></g>
<g><path style="opacity:1" fill="#a1a1a1" d="M 291.5,678.5 C 291.586,679.496 291.252,680.329 290.5,681C 288.956,681.29 287.623,681.956 286.5,683C 290,683.167 293.5,683.333 297,683.5C 300.902,683.488 304.402,682.821 307.5,681.5C 308.404,682.209 308.737,683.209 308.5,684.5C 300.833,684.5 293.167,684.5 285.5,684.5C 285.351,683.448 285.517,682.448 286,681.5C 288.018,680.777 289.852,679.777 291.5,678.5 Z"/></g>
<g><path style="opacity:1" fill="#a9a9a9" d="M 360.5,680.5 C 362.117,681.038 363.784,681.371 365.5,681.5C 365.5,682.5 365.5,683.5 365.5,684.5C 359.5,684.5 353.5,684.5 347.5,684.5C 347.285,682.821 347.952,681.821 349.5,681.5C 349.389,682.117 349.056,682.617 348.5,683C 353.833,683.667 359.167,683.667 364.5,683C 362.68,682.8 361.347,681.966 360.5,680.5 Z"/></g>
<g><path style="opacity:1" fill="#afafaf" d="M 439.5,678.5 C 438.962,680.117 438.629,681.784 438.5,683.5C 443.944,684.108 448.944,683.442 453.5,681.5C 454.404,682.209 454.737,683.209 454.5,684.5C 447.5,684.5 440.5,684.5 433.5,684.5C 433.5,683.5 433.5,682.5 433.5,681.5C 435.947,681.385 437.947,680.385 439.5,678.5 Z"/></g>
<g><path style="opacity:1" fill="#acacac" d="M 498.5,681.5 C 499.5,681.5 500.5,681.5 501.5,681.5C 501.5,682.5 501.5,683.5 501.5,684.5C 492.983,684.826 484.65,684.493 476.5,683.5C 484.507,683.666 492.507,683.5 500.5,683C 499.584,682.722 498.918,682.222 498.5,681.5 Z"/></g>
<g><path style="opacity:1" fill="#a2a2a2" d="M 608.5,679.5 C 612.138,679.447 614.138,681.113 614.5,684.5C 608.5,684.5 602.5,684.5 596.5,684.5C 596.263,683.209 596.596,682.209 597.5,681.5C 599.743,682.812 602.41,683.478 605.5,683.5C 608.167,683.333 610.833,683.167 613.5,683C 611.416,682.303 609.749,681.136 608.5,679.5 Z"/></g>
<g><path style="opacity:1" fill="#8a8a8a" d="M 257.5,683.5 C 257.389,684.117 257.056,684.617 256.5,685C 250.984,685.817 245.65,685.651 240.5,684.5C 246.227,684.74 251.894,684.407 257.5,683.5 Z"/></g>
<g><path style="opacity:1" fill="#e6e6e6" d="M -0.5,810.5 C 0.40128,811.29 1.06795,812.29 1.5,813.5C 0.833333,813.5 0.166667,813.5 -0.5,813.5C -0.5,812.5 -0.5,811.5 -0.5,810.5 Z"/></g>
</svg>
